<svg width="339" height="16" viewBox="0 0 339 16" fill="none" xmlns="http://www.w3.org/2000/svg">
<path d="M7.504 13.896C9.344 13.896 10.896 13.272 12.16 12.04C13.424 10.808 14.064 9.224 14.064 7.304C14.064 5.4 13.424 3.848 12.16 2.632C10.896 1.4 9.344 0.792 7.52 0.792C5.68 0.792 4.128 1.4 2.832 2.632C1.552 3.864 0.912 5.432 0.912 7.336C0.912 9.256 1.552 10.824 2.832 12.056C4.128 13.288 5.68 13.896 7.504 13.896ZM7.488 13.416C5.808 13.416 4.384 12.856 3.2 11.72C2.032 10.584 1.44 9.112 1.44 7.336C1.44 5.56 2.032 4.104 3.2 2.968C4.384 1.832 5.824 1.256 7.52 1.256C9.2 1.256 10.624 1.816 11.792 2.952C12.96 4.088 13.552 5.528 13.552 7.304C13.552 9.096 12.96 10.568 11.776 11.704C10.608 12.84 9.168 13.416 7.488 13.416ZM7.568 10.84C8.48 10.84 9.232 10.584 9.856 10.072C10.48 9.56 10.848 8.92 10.928 8.136H9.76C9.616 9.144 8.72 9.832 7.568 9.832C6.16 9.832 5.264 8.904 5.264 7.32C5.264 5.832 6.144 4.808 7.568 4.808C8.72 4.808 9.616 5.496 9.76 6.52H10.928C10.848 5.72 10.48 5.064 9.856 4.568C9.232 4.072 8.48 3.816 7.6 3.816C6.56 3.816 5.712 4.136 5.056 4.792C4.4 5.448 4.064 6.296 4.064 7.336C4.064 8.392 4.384 9.24 5.04 9.88C5.696 10.52 6.544 10.84 7.568 10.84ZM18.1404 13L18.2684 11.544H18.3644C18.7644 12.552 19.9004 13.16 21.1964 13.16C22.2844 13.16 23.1644 12.76 23.8204 11.976C24.4764 11.176 24.8124 10.12 24.8124 8.824C24.8124 7.528 24.4764 6.472 23.8204 5.688C23.1644 4.888 22.3164 4.488 21.2764 4.488C19.9324 4.488 18.7964 5.208 18.3644 6.248H18.2684V1.272H16.8764V13H18.1404ZM18.2684 8.328C18.2684 7.56 18.5084 6.936 18.9884 6.456C19.4844 5.96 20.1084 5.72 20.8604 5.72C22.3164 5.72 23.4044 6.728 23.4044 8.824C23.4044 10.888 22.3164 11.944 20.8444 11.944C20.1244 11.944 19.5004 11.704 19.0044 11.224C18.5084 10.744 18.2684 10.136 18.2684 9.4V8.328ZM26.7193 10.712C26.7193 12.168 27.8393 13.16 29.5033 13.16C30.7993 13.16 31.9033 12.536 32.2713 11.624H32.3673C32.3673 12.6 32.8313 13.096 33.7753 13.096C34.0153 13.096 34.2552 13.064 34.4792 13V11.928C34.3993 11.944 34.2873 11.96 34.1753 11.96C33.6953 11.96 33.6633 11.656 33.6633 11.32V7.512C33.6633 5.608 32.5273 4.488 30.4313 4.488C29.4873 4.488 28.7033 4.728 28.0793 5.208C27.4713 5.672 27.1353 6.296 27.0713 7.08H28.4153C28.4633 6.184 29.2153 5.592 30.3673 5.592C31.6473 5.592 32.2873 6.2 32.2873 7.4V8.024H30.0633C27.9993 8.024 26.7193 8.968 26.7193 10.712ZM28.1432 10.552C28.1432 9.592 28.8153 9.032 30.1753 9.032H32.2873V9.48C32.2873 10.968 31.2793 12.008 29.7913 12.008C28.7833 12.008 28.1432 11.464 28.1432 10.552ZM36.2825 10.472C36.2825 12.088 37.5785 13.16 39.6905 13.16C41.6905 13.16 43.0185 12.184 43.0185 10.664C43.0185 9.368 42.2825 8.6 40.8265 8.344L39.1785 8.04C38.8425 7.976 38.6985 7.928 38.3625 7.784C38.0265 7.608 37.8345 7.288 37.8345 6.84C37.8345 6.056 38.4745 5.56 39.6105 5.56C40.8105 5.56 41.4185 6.056 41.4665 7.032H42.7945C42.7785 5.496 41.5785 4.488 39.5945 4.488C37.6745 4.488 36.4425 5.432 36.4425 6.984C36.4425 8.184 37.1945 8.92 38.6825 9.192L40.4585 9.528C41.2105 9.672 41.5785 10.056 41.5785 10.68C41.5785 11.56 40.8585 12.072 39.6905 12.072C38.4105 12.072 37.6265 11.448 37.6105 10.472H36.2825ZM49.0154 13.16C50.0074 13.16 50.8394 12.92 51.5114 12.424C52.1994 11.928 52.6154 11.288 52.7594 10.488H51.3674C51.1594 11.4 50.2634 12.024 49.0474 12.024C47.4474 12.024 46.4554 10.952 46.4714 9.112H52.6474C52.6794 8.872 52.6954 8.584 52.6954 8.248C52.6954 5.96 51.3194 4.488 48.9994 4.488C47.8154 4.488 46.8554 4.888 46.1354 5.688C45.4154 6.472 45.0634 7.528 45.0634 8.84C45.0634 10.152 45.4314 11.208 46.1514 11.992C46.8714 12.776 47.8314 13.16 49.0154 13.16ZM46.4874 8.088C46.5354 6.6 47.5274 5.624 48.9834 5.624C50.4714 5.624 51.3194 6.504 51.3194 8.088H46.4874ZM56.7528 13V8.552C56.7528 6.872 57.6008 5.72 58.9608 5.72C60.1608 5.72 60.7688 6.472 60.7688 7.992V13H62.1448V8.568C62.1448 6.824 62.8648 5.72 64.3208 5.72C65.5368 5.72 66.1448 6.488 66.1448 8.008V13H67.5368V7.864C67.5368 5.768 66.4968 4.488 64.7528 4.488C63.5368 4.488 62.5128 5.144 62.0168 6.312H61.8888C61.5048 5.224 60.6088 4.488 59.4408 4.488C58.2408 4.488 57.3928 5.064 56.8648 6.2H56.7368L56.5608 4.648H55.3608V13H56.7528ZM73.9529 13.16C74.9449 13.16 75.7769 12.92 76.4489 12.424C77.1369 11.928 77.5529 11.288 77.6969 10.488H76.3049C76.0969 11.4 75.2009 12.024 73.9849 12.024C72.3849 12.024 71.3929 10.952 71.4089 9.112H77.5849C77.6169 8.872 77.6329 8.584 77.6329 8.248C77.6329 5.96 76.2569 4.488 73.9369 4.488C72.7529 4.488 71.7929 4.888 71.0729 5.688C70.3529 6.472 70.0009 7.528 70.0009 8.84C70.0009 10.152 70.3689 11.208 71.0889 11.992C71.8089 12.776 72.7689 13.16 73.9529 13.16ZM71.4249 8.088C71.4729 6.6 72.4649 5.624 73.9209 5.624C75.4089 5.624 76.2569 6.504 76.2569 8.088H71.4249ZM81.6903 13V8.632C81.6903 6.888 82.6823 5.72 84.1543 5.72C85.4663 5.72 86.1223 6.488 86.1223 8.008V13H87.5143V7.864C87.5143 5.8 86.4263 4.488 84.6183 4.488C83.3543 4.488 82.3143 5.128 81.8023 6.2H81.6903L81.5143 4.648H80.2983V13H81.6903ZM89.3174 5.8H90.7574V10.744C90.7574 12.328 91.4934 13.128 92.9654 13.128C93.3494 13.128 93.7014 13.08 94.0054 13V11.832C93.8294 11.896 93.6054 11.928 93.3014 11.928C92.2294 11.864 92.1174 11.272 92.1334 10.616V5.8H94.0054V4.648H92.1334V1.592L90.7574 2.12V4.648H89.3174V5.8ZM98.1609 13V10.984H96.3689V13H98.1609ZM100.454 10.472C100.454 12.088 101.75 13.16 103.862 13.16C105.862 13.16 107.19 12.184 107.19 10.664C107.19 9.368 106.454 8.6 104.998 8.344L103.35 8.04C103.014 7.976 102.87 7.928 102.534 7.784C102.198 7.608 102.006 7.288 102.006 6.84C102.006 6.056 102.646 5.56 103.782 5.56C104.982 5.56 105.59 6.056 105.638 7.032H106.966C106.95 5.496 105.75 4.488 103.766 4.488C101.846 4.488 100.614 5.432 100.614 6.984C100.614 8.184 101.366 8.92 102.854 9.192L104.63 9.528C105.382 9.672 105.75 10.056 105.75 10.68C105.75 11.56 105.03 12.072 103.862 12.072C102.582 12.072 101.798 11.448 101.782 10.472H100.454ZM108.583 5.8H110.023V10.744C110.023 12.328 110.759 13.128 112.231 13.128C112.615 13.128 112.967 13.08 113.271 13V11.832C113.095 11.896 112.871 11.928 112.567 11.928C111.495 11.864 111.383 11.272 111.399 10.616V5.8H113.271V4.648H111.399V1.592L110.023 2.12V4.648H108.583V5.8ZM121.273 4.648V9.016C121.273 10.76 120.313 11.944 118.793 11.944C117.561 11.944 116.937 11.224 116.937 9.784V4.648H115.561V9.976C115.561 12.008 116.601 13.16 118.329 13.16C119.625 13.16 120.713 12.488 121.161 11.448H121.289L121.481 13H122.665V4.648H121.273ZM133.078 1.272H131.686V6.28H131.606C131.158 5.192 130.118 4.488 128.726 4.488C127.654 4.488 126.774 4.888 126.118 5.688C125.462 6.488 125.126 7.56 125.126 8.888C125.126 10.184 125.446 11.224 126.102 12.008C126.758 12.776 127.622 13.16 128.71 13.16C130.038 13.16 131.158 12.52 131.606 11.544H131.686L131.83 13H133.078V1.272ZM131.686 9.4C131.686 10.12 131.43 10.728 130.934 11.224C130.438 11.704 129.814 11.944 129.062 11.944C127.51 11.944 126.55 10.84 126.55 8.904C126.55 6.92 127.478 5.72 129.094 5.72C130.582 5.72 131.686 6.776 131.686 8.328V9.4ZM137.737 3.24V1.416H136.361V3.24H137.737ZM137.737 13V4.648H136.361V13H137.737ZM140.329 8.856C140.329 10.136 140.697 11.176 141.433 11.976C142.185 12.76 143.161 13.16 144.361 13.16C145.561 13.16 146.521 12.76 147.241 11.96C147.977 11.16 148.345 10.12 148.345 8.84C148.345 7.544 147.977 6.504 147.241 5.704C146.521 4.888 145.561 4.488 144.361 4.488C143.161 4.488 142.185 4.888 141.433 5.704C140.697 6.52 140.329 7.56 140.329 8.856ZM141.753 8.824C141.753 6.904 142.761 5.72 144.345 5.72C145.993 5.72 146.921 6.936 146.921 8.808C146.921 10.744 145.929 11.928 144.345 11.928C142.697 11.928 141.753 10.728 141.753 8.824ZM162.341 13V11.656H156.869V1.336H155.413V13H162.341ZM171.966 13V11.656H166.494V1.336H165.038V13H171.966ZM182.119 9.176C181.751 10.824 180.487 11.848 178.551 11.848C177.351 11.848 176.407 11.432 175.703 10.584C174.999 9.736 174.647 8.6 174.647 7.176C174.647 5.752 174.999 4.632 175.703 3.784C176.423 2.936 177.367 2.504 178.567 2.504C180.359 2.504 181.719 3.496 182.119 5.144H183.607C183.415 3.944 182.855 2.984 181.943 2.264C181.031 1.544 179.911 1.192 178.567 1.192C176.935 1.192 175.623 1.736 174.615 2.84C173.607 3.944 173.111 5.384 173.111 7.176C173.111 8.968 173.607 10.408 174.615 11.512C175.623 12.616 176.935 13.16 178.567 13.16C179.927 13.16 181.063 12.792 181.975 12.072C182.903 11.352 183.447 10.376 183.607 9.176H182.119ZM187.458 13V10.984H185.666V13H187.458ZM203.826 13L199.394 1.336H197.73L193.33 13H194.85L195.874 10.248H201.234L202.258 13H203.826ZM197.058 7.048L198.53 2.808H198.61L200.05 7.048L200.786 9.048H196.322L197.058 7.048ZM207.174 13V1.272H205.798V13H207.174ZM211.831 13V1.272H210.455V13H211.831ZM220.737 13V9.144C220.737 6.92 221.665 5.8 223.537 5.768V4.52C222.209 4.52 221.297 5.128 220.833 6.344H220.737L220.561 4.648H219.345V13H220.737ZM227.018 3.24V1.416H225.642V3.24H227.018ZM227.018 13V4.648H225.642V13H227.018ZM229.498 13.848C229.498 15.112 230.65 15.896 233.018 15.896C235.53 15.896 237.034 15.064 237.034 13.464C237.034 12.168 236.106 11.384 234.522 11.384H232.314C231.562 11.384 231.194 11.144 231.194 10.664C231.194 10.232 231.434 9.976 231.914 9.896C232.282 9.976 232.65 10.024 233.05 10.024C234.906 10.024 236.138 8.92 236.138 7.304C236.138 6.52 235.882 5.864 235.37 5.352C235.546 4.856 236.154 4.52 236.922 4.52V3.368C235.786 3.368 234.874 3.944 234.538 4.84C234.138 4.6 233.61 4.488 232.954 4.488C232.026 4.488 231.274 4.744 230.682 5.256C230.106 5.752 229.818 6.424 229.818 7.256C229.818 8.248 230.218 9 231.018 9.496V9.592C230.362 9.784 229.93 10.312 229.93 10.968C229.93 11.48 230.266 11.96 230.762 12.104V12.216C229.994 12.456 229.498 13.064 229.498 13.848ZM231.194 7.272C231.194 6.2 231.882 5.496 232.986 5.496C234.074 5.496 234.778 6.168 234.778 7.272C234.778 8.344 234.122 9.032 232.986 9.032C231.898 9.032 231.194 8.376 231.194 7.272ZM230.762 13.624C230.762 12.904 231.226 12.536 232.138 12.536H234.394C235.242 12.536 235.658 12.856 235.658 13.512C235.658 14.408 234.794 14.856 233.082 14.856C231.53 14.856 230.762 14.44 230.762 13.624ZM240.768 13V8.584C240.768 6.856 241.744 5.72 243.216 5.72C244.544 5.72 245.2 6.472 245.2 7.992V13H246.576V7.848C246.576 5.784 245.488 4.488 243.68 4.488C242.448 4.488 241.376 5.128 240.864 6.168H240.768V1.272H239.376V13H240.768ZM248.38 5.8H249.82V10.744C249.82 12.328 250.556 13.128 252.028 13.128C252.412 13.128 252.764 13.08 253.068 13V11.832C252.892 11.896 252.668 11.928 252.364 11.928C251.292 11.864 251.18 11.272 251.196 10.616V5.8H253.068V4.648H251.196V1.592L249.82 2.12V4.648H248.38V5.8ZM254.798 10.472C254.798 12.088 256.094 13.16 258.206 13.16C260.206 13.16 261.534 12.184 261.534 10.664C261.534 9.368 260.798 8.6 259.342 8.344L257.694 8.04C257.358 7.976 257.214 7.928 256.878 7.784C256.542 7.608 256.35 7.288 256.35 6.84C256.35 6.056 256.99 5.56 258.126 5.56C259.326 5.56 259.934 6.056 259.982 7.032H261.31C261.294 5.496 260.094 4.488 258.11 4.488C256.19 4.488 254.958 5.432 254.958 6.984C254.958 8.184 255.71 8.92 257.198 9.192L258.974 9.528C259.726 9.672 260.094 10.056 260.094 10.68C260.094 11.56 259.374 12.072 258.206 12.072C256.926 12.072 256.142 11.448 256.126 10.472H254.798ZM269.768 13V9.144C269.768 6.92 270.696 5.8 272.568 5.768V4.52C271.24 4.52 270.328 5.128 269.864 6.344H269.768L269.592 4.648H268.376V13H269.768ZM277.547 13.16C278.539 13.16 279.371 12.92 280.043 12.424C280.731 11.928 281.147 11.288 281.291 10.488H279.899C279.691 11.4 278.795 12.024 277.579 12.024C275.979 12.024 274.987 10.952 275.003 9.112H281.179C281.211 8.872 281.227 8.584 281.227 8.248C281.227 5.96 279.851 4.488 277.531 4.488C276.347 4.488 275.387 4.888 274.667 5.688C273.947 6.472 273.595 7.528 273.595 8.84C273.595 10.152 273.963 11.208 274.683 11.992C275.403 12.776 276.363 13.16 277.547 13.16ZM275.019 8.088C275.067 6.6 276.059 5.624 277.515 5.624C279.003 5.624 279.851 6.504 279.851 8.088H275.019ZM283.22 10.472C283.22 12.088 284.516 13.16 286.628 13.16C288.628 13.16 289.956 12.184 289.956 10.664C289.956 9.368 289.22 8.6 287.764 8.344L286.116 8.04C285.78 7.976 285.636 7.928 285.3 7.784C284.964 7.608 284.772 7.288 284.772 6.84C284.772 6.056 285.412 5.56 286.548 5.56C287.748 5.56 288.356 6.056 288.404 7.032H289.732C289.716 5.496 288.516 4.488 286.532 4.488C284.612 4.488 283.38 5.432 283.38 6.984C283.38 8.184 284.132 8.92 285.62 9.192L287.396 9.528C288.148 9.672 288.516 10.056 288.516 10.68C288.516 11.56 287.796 12.072 286.628 12.072C285.348 12.072 284.564 11.448 284.548 10.472H283.22ZM295.953 13.16C296.945 13.16 297.777 12.92 298.449 12.424C299.137 11.928 299.553 11.288 299.697 10.488H298.305C298.097 11.4 297.201 12.024 295.985 12.024C294.385 12.024 293.393 10.952 293.409 9.112H299.585C299.617 8.872 299.633 8.584 299.633 8.248C299.633 5.96 298.257 4.488 295.937 4.488C294.753 4.488 293.793 4.888 293.073 5.688C292.353 6.472 292.001 7.528 292.001 8.84C292.001 10.152 292.369 11.208 293.089 11.992C293.809 12.776 294.769 13.16 295.953 13.16ZM293.425 8.088C293.473 6.6 294.465 5.624 295.921 5.624C297.409 5.624 298.257 6.504 298.257 8.088H293.425ZM303.69 13V9.144C303.69 6.92 304.618 5.8 306.49 5.768V4.52C305.162 4.52 304.25 5.128 303.786 6.344H303.69L303.514 4.648H302.298V13H303.69ZM310.227 13H311.875L314.851 4.648H313.347L311.875 9.096L311.091 11.576H310.995L310.195 9.096L308.723 4.648H307.203L310.227 13ZM319.969 13.16C320.961 13.16 321.793 12.92 322.465 12.424C323.153 11.928 323.569 11.288 323.713 10.488H322.321C322.113 11.4 321.217 12.024 320.001 12.024C318.401 12.024 317.409 10.952 317.424 9.112H323.601C323.633 8.872 323.649 8.584 323.649 8.248C323.649 5.96 322.273 4.488 319.953 4.488C318.769 4.488 317.809 4.888 317.089 5.688C316.368 6.472 316.017 7.528 316.017 8.84C316.017 10.152 316.385 11.208 317.105 11.992C317.825 12.776 318.785 13.16 319.969 13.16ZM317.441 8.088C317.489 6.6 318.481 5.624 319.937 5.624C321.425 5.624 322.273 6.504 322.273 8.088H317.441ZM333.734 1.272H332.342V6.28H332.262C331.814 5.192 330.774 4.488 329.382 4.488C328.31 4.488 327.43 4.888 326.774 5.688C326.118 6.488 325.782 7.56 325.782 8.888C325.782 10.184 326.102 11.224 326.758 12.008C327.414 12.776 328.278 13.16 329.366 13.16C330.694 13.16 331.814 12.52 332.262 11.544H332.342L332.486 13H333.734V1.272ZM332.342 9.4C332.342 10.12 332.086 10.728 331.59 11.224C331.094 11.704 330.47 11.944 329.718 11.944C328.166 11.944 327.206 10.84 327.206 8.904C327.206 6.92 328.134 5.72 329.75 5.72C331.238 5.72 332.342 6.776 332.342 8.328V9.4ZM338.489 13V10.984H336.697V13H338.489Z" fill="white"/>
</svg>
